<svg width="96" height="96" xmlns="http://www.w3.org/2000/svg" xmlns:xlink="http://www.w3.org/1999/xlink" overflow="hidden"><defs><clipPath id="clip0"><rect x="151" y="282" width="96" height="96"/></clipPath></defs><g clip-path="url(#clip0)" transform="translate(-151 -282)"><path d="M196 289 196 363.8 187.1 354.9C185.9 353.7 184 353.7 182.9 354.9 181.7 356.1 181.7 358 182.9 359.1L196.9 373.1C198.1 374.3 200 374.3 201.1 373.1L215.1 359.1C215.7 358.5 216 357.7 216 357 216 356.3 215.7 355.5 215.1 354.9 213.9 353.7 212 353.7 210.9 354.9L202 363.8 202 289C202 287.3 200.7 286 199 286 197.3 286 196 287.3 196 289Z" stroke="#13133A" fill="#808080"/></g></svg>