<svg width="64" height="64" xmlns="http://www.w3.org/2000/svg" xmlns:xlink="http://www.w3.org/1999/xlink" overflow="hidden"><defs><clipPath id="clip0"><rect x="77" y="116" width="64" height="64"/></clipPath></defs><g clip-path="url(#clip0)" transform="translate(-77 -116)"><path d="M82 120C80.35 120 79 121.35 79 123L79 129C79 130.51 80.1203 131.761 81.5703 131.971L103.15 152.609C103.71 153.149 104.04 153.87 104.07 154.65L105 175.5C105.03 176.18 105.4 176.791 105.98 177.141 106.3 177.321 106.64 177.41 106.99 177.41 107.3 177.41 107.611 177.339 107.891 177.199L113.35 174.439C115.69 177.799 119.59 180 124 180 131.17 180 137 174.17 137 167 137 159.83 131.17 154 124 154 120.9 154 118.041 155.1 115.801 156.91L115.92 154.539C115.96 153.819 116.25 153.129 116.75 152.609L136.461 131.961C137.901 131.741 139 130.5 139 129L139 123C139 121.35 137.65 120 136 120L82 120ZM82 122 136 122C136.55 122 137 122.45 137 123L137 129C137 129.55 136.55 130 136 130 135.73 130 135.469 130.111 135.279 130.311L115.301 151.23C115.081 151.471 114.881 151.73 114.711 152L105.221 152C105.021 151.7 104.799 151.42 104.529 151.17L84.4902 132 124 132C124.55 132 125 131.55 125 131 125 130.45 124.55 130 124 130L82 130C81.45 130 81 129.55 81 129L81 123C81 122.45 81.45 122 82 122ZM84 124C83.448 124 83 124.447 83 125L83 127C83 127.553 83.448 128 84 128 84.552 128 85 127.553 85 127L85 125C85 124.447 84.552 124 84 124ZM89 124C88.448 124 88 124.447 88 125L88 127C88 127.553 88.448 128 89 128 89.552 128 90 127.553 90 127L90 125C90 124.447 89.552 124 89 124ZM94 124C93.448 124 93 124.447 93 125L93 127C93 127.553 93.448 128 94 128 94.552 128 95 127.553 95 127L95 125C95 124.447 94.552 124 94 124ZM99 124C98.448 124 98 124.447 98 125L98 127C98 127.553 98.448 128 99 128 99.552 128 100 127.553 100 127L100 125C100 124.447 99.552 124 99 124ZM104 124C103.448 124 103 124.447 103 125L103 127C103 127.553 103.448 128 104 128 104.552 128 105 127.553 105 127L105 125C105 124.447 104.552 124 104 124ZM109 124C108.448 124 108 124.447 108 125L108 127C108 127.553 108.448 128 109 128 109.552 128 110 127.553 110 127L110 125C110 124.447 109.552 124 109 124ZM114 124C113.448 124 113 124.447 113 125L113 127C113 127.553 113.448 128 114 128 114.552 128 115 127.553 115 127L115 125C115 124.447 114.552 124 114 124ZM119 124C118.448 124 118 124.447 118 125L118 127C118 127.553 118.448 128 119 128 119.552 128 120 127.553 120 127L120 125C120 124.447 119.552 124 119 124ZM124 124C123.448 124 123 124.447 123 125L123 127C123 127.553 123.448 128 124 128 124.552 128 125 127.553 125 127L125 125C125 124.447 124.552 124 124 124ZM129 124C128.448 124 128 124.447 128 125L128 127C128 127.553 128.448 128 129 128 129.552 128 130 127.553 130 127L130 125C130 124.447 129.552 124 129 124ZM134 124C133.448 124 133 124.447 133 125L133 127C133 127.553 133.448 128 134 128 134.552 128 135 127.553 135 127L135 125C135 124.447 134.552 124 134 124ZM128 130C127.448 130 127 130.447 127 131 127 131.553 127.448 132 128 132L132 132C132.552 132 133 131.553 133 131 133 130.447 132.552 130 132 130L128 130ZM105.99 154 113.99 154C113.97 154.15 113.93 154.29 113.93 154.439L113.699 159.08C112.009 161.28 111 164.03 111 167 111 169.05 111.48 170.991 112.33 172.721L106.99 175.41 106.07 154.561C106.06 154.37 106.02 154.19 105.99 154ZM124 156C130.07 156 135 160.93 135 167 135 173.07 130.07 178 124 178 120.2 178 116.839 176.071 114.869 173.131 114.049 171.921 113.479 170.55 113.199 169.07 113.069 168.4 113 167.71 113 167 113 165.9 113.161 164.85 113.461 163.85 113.901 162.35 114.66 160.99 115.66 159.83 117.68 157.49 120.67 156 124 156ZM119.758 161.758C119.502 161.758 119.246 161.855 119.051 162.051 118.66 162.442 118.66 163.074 119.051 163.465L122.586 167 119.051 170.535C118.66 170.926 118.66 171.559 119.051 171.949 119.246 172.144 119.502 172.242 119.758 172.242 120.014 172.242 120.27 172.144 120.465 171.949L124 168.414 127.535 171.949C127.73 172.144 127.986 172.242 128.242 172.242 128.498 172.242 128.754 172.144 128.949 171.949 129.34 171.558 129.34 170.926 128.949 170.535L125.414 167 128.949 163.465C129.34 163.074 129.34 162.442 128.949 162.051 128.558 161.66 127.926 161.66 127.535 162.051L124 165.586 120.465 162.051C120.269 161.855 120.014 161.758 119.758 161.758Z" stroke="#13133A" stroke-width="1.33333"/></g></svg>