<svg width="96" height="96" xmlns="http://www.w3.org/2000/svg" xmlns:xlink="http://www.w3.org/1999/xlink" overflow="hidden"><defs><clipPath id="clip0"><rect x="55" y="282" width="96" height="96"/></clipPath></defs><g clip-path="url(#clip0)" transform="translate(-55 -282)"><path d="M106 371 106 296.2 114.9 305.1C116.1 306.3 118 306.3 119.1 305.1 120.3 303.9 120.3 302 119.1 300.9L105.1 286.9C103.9 285.7 102 285.7 100.9 286.9L86.9 300.9C86.3 301.5 86 302.3 86 303 86 303.7 86.3 304.5 86.9 305.1 88.1 306.3 90 306.3 91.1 305.1L100 296.2 100 371C100 372.7 101.3 374 103 374 104.7 374 106 372.7 106 371Z" stroke="#13133A" fill="#808080"/></g></svg>