<svg width="96" height="96" xmlns="http://www.w3.org/2000/svg" xmlns:xlink="http://www.w3.org/1999/xlink" overflow="hidden"><defs><clipPath id="clip0"><rect x="98" y="323" width="96" height="96"/></clipPath></defs><g clip-path="url(#clip0)" transform="translate(-98 -323)"><path d="M184 394 181 397 112 397 108 393 108 373 112 369 181 369 184 372 184 394ZM102 363 102 403 190 403 190 363 102 363Z" stroke="#13133A" fill="#808080"/><path d="M154 383C154 388.523 150.418 393 146 393 141.582 393 138 388.523 138 383 138 377.477 141.582 373 146 373 150.418 373 154 377.477 154 383Z" stroke="#13133A" fill="#808080"/><path d="M124 383C124 384.657 122.657 386 121 386 119.343 386 118 384.657 118 383 118 381.343 119.343 380 121 380 122.657 380 124 381.343 124 383Z" stroke="#13133A" fill="#808080"/><path d="M174 383C174 384.657 172.657 386 171 386 169.343 386 168 384.657 168 383 168 381.343 169.343 380 171 380 172.657 380 174 381.343 174 383Z" stroke="#13133A" fill="#808080"/><path d="M163.9 343.7 165.4 347.5 171.4 346.3 167.2 335.8 113.4 357.8 144.2 351.7Z" stroke="#13133A" fill="#808080"/><path d="M158.7 359 174.5 355.9 175.2 359 181.3 359 179.3 348.8 128 359Z" stroke="#13133A" fill="#808080"/></g></svg>